<?xml version="1.0" encoding="UTF-8"?>
<svg width="241px" height="150px" viewBox="0 0 241 150" version="1.1" xmlns="http://www.w3.org/2000/svg" xmlns:xlink="http://www.w3.org/1999/xlink">
    <!-- Generator: Sketch 41.2 (35397) - http://www.bohemiancoding.com/sketch -->
    <title>in</title>
    <desc>Created with Sketch.</desc>
    <defs></defs>
    <g id="Page-1" stroke="none" stroke-width="1" fill="none" fill-rule="evenodd">
        <g id="in">
            <rect id="Rectangle-path" fill="#FF9933" x="0" y="0" width="240.149994" height="150"></rect>
            <rect id="Rectangle-path" fill="#FFFFFF" x="0" y="50" width="240.149994" height="50"></rect>
            <rect id="Rectangle-path" fill="#128807" x="0" y="100" width="240.149994" height="50"></rect>
            <g id="Group" transform="translate(79.516331, 28.000000)">
                <ellipse id="Oval" fill="#000088" cx="40.5586656" cy="47" rx="21.3466661" ry="20"></ellipse>
                <ellipse id="Oval" fill="#FFFFFF" cx="40.5586656" cy="47" rx="18.6783329" ry="17.5"></ellipse>
                <ellipse id="Oval" fill="#000088" cx="40.5586656" cy="47" rx="3.73566657" ry="3.5"></ellipse>
                <g id="d" transform="translate(3.202000, 30.000000)" fill="#000088">
                    <g id="c" transform="translate(19.212000, 14.000000)">
                        <g id="b" transform="translate(11.740666, 3.000000)">
                            <g id="a" transform="translate(5.336667, 1.000000)">
                                <ellipse id="Oval" transform="translate(19.585870, 1.284208) rotate(7.500000) translate(-19.585870, -1.284208) " cx="19.5858704" cy="1.28420836" rx="0.933916643" ry="0.875"></ellipse>
                                <path d="M1.06733331,16.5 L1.70773329,6 L1.06733331,1 L0.426933322,6 L1.06733331,16.5 Z" id="Shape"></path>
                            </g>
                            <g id="a-link" transform="translate(13.058344, 11.505667) rotate(15.000000) translate(-13.058344, -11.505667) translate(2.385011, 3.005667)">
                                <g id="a">
                                    <ellipse id="Oval" transform="translate(19.585870, 1.284208) rotate(7.500000) translate(-19.585870, -1.284208) " cx="19.5858704" cy="1.28420836" rx="0.933916643" ry="0.875"></ellipse>
                                    <path d="M1.06733331,16.5 L1.70773329,6 L1.06733331,1 L0.426933322,6 L1.06733331,16.5 Z" id="Shape"></path>
                                </g>
                            </g>
                        </g>
                        <g id="b-link" transform="translate(18.015695, 16.209292) rotate(30.000000) translate(-18.015695, -16.209292) translate(4.674029, 4.709292)">
                            <g id="b">
                                <g id="a" transform="translate(5.336667, 1.000000)">
                                    <ellipse id="Oval" transform="translate(19.585870, 1.284208) rotate(7.500000) translate(-19.585870, -1.284208) " cx="19.5858704" cy="1.28420836" rx="0.933916643" ry="0.875"></ellipse>
                                    <path d="M1.06733331,16.5 L1.70773329,6 L1.06733331,1 L0.426933322,6 L1.06733331,16.5 Z" id="Shape"></path>
                                </g>
                                <g id="a-link" transform="translate(13.058344, 11.505667) rotate(15.000000) translate(-13.058344, -11.505667) translate(2.385011, 3.005667)">
                                    <g id="a">
                                        <ellipse id="Oval" transform="translate(19.585870, 1.284208) rotate(7.500000) translate(-19.585870, -1.284208) " cx="19.5858704" cy="1.28420836" rx="0.933916643" ry="0.875"></ellipse>
                                        <path d="M1.06733331,16.5 L1.70773329,6 L1.06733331,1 L0.426933322,6 L1.06733331,16.5 Z" id="Shape"></path>
                                    </g>
                                </g>
                            </g>
                        </g>
                    </g>
                    <g id="c-link" transform="translate(25.411773, 24.616025) rotate(60.000000) translate(-25.411773, -24.616025) translate(6.199773, 8.116025)">
                        <g id="c">
                            <g id="b" transform="translate(11.740666, 3.000000)">
                                <g id="a" transform="translate(5.336667, 1.000000)">
                                    <ellipse id="Oval" transform="translate(19.585870, 1.284208) rotate(7.500000) translate(-19.585870, -1.284208) " cx="19.5858704" cy="1.28420836" rx="0.933916643" ry="0.875"></ellipse>
                                    <path d="M1.06733331,16.5 L1.70773329,6 L1.06733331,1 L0.426933322,6 L1.06733331,16.5 Z" id="Shape"></path>
                                </g>
                                <g id="a-link" transform="translate(13.058344, 11.505667) rotate(15.000000) translate(-13.058344, -11.505667) translate(2.385011, 3.005667)">
                                    <g id="a">
                                        <ellipse id="Oval" transform="translate(19.585870, 1.284208) rotate(7.500000) translate(-19.585870, -1.284208) " cx="19.5858704" cy="1.28420836" rx="0.933916643" ry="0.875"></ellipse>
                                        <path d="M1.06733331,16.5 L1.70773329,6 L1.06733331,1 L0.426933322,6 L1.06733331,16.5 Z" id="Shape"></path>
                                    </g>
                                </g>
                            </g>
                            <g id="b-link" transform="translate(18.015695, 16.209292) rotate(30.000000) translate(-18.015695, -16.209292) translate(4.674029, 4.709292)">
                                <g id="b">
                                    <g id="a" transform="translate(5.336667, 1.000000)">
                                        <ellipse id="Oval" transform="translate(19.585870, 1.284208) rotate(7.500000) translate(-19.585870, -1.284208) " cx="19.5858704" cy="1.28420836" rx="0.933916643" ry="0.875"></ellipse>
                                        <path d="M1.06733331,16.5 L1.70773329,6 L1.06733331,1 L0.426933322,6 L1.06733331,16.5 Z" id="Shape"></path>
                                    </g>
                                    <g id="a-link" transform="translate(13.058344, 11.505667) rotate(15.000000) translate(-13.058344, -11.505667) translate(2.385011, 3.005667)">
                                        <g id="a">
                                            <ellipse id="Oval" transform="translate(19.585870, 1.284208) rotate(7.500000) translate(-19.585870, -1.284208) " cx="19.5858704" cy="1.28420836" rx="0.933916643" ry="0.875"></ellipse>
                                            <path d="M1.06733331,16.5 L1.70773329,6 L1.06733331,1 L0.426933322,6 L1.06733331,16.5 Z" id="Shape"></path>
                                        </g>
                                    </g>
                                </g>
                            </g>
                        </g>
                    </g>
                </g>
                <g id="d-link" transform="translate(37.895466, 36.321797) rotate(120.000000) translate(-37.895466, -36.321797) translate(9.077466, 11.821797)" fill="#000088">
                    <g id="d">
                        <g id="c" transform="translate(19.212000, 14.000000)">
                            <g id="b" transform="translate(11.740666, 3.000000)">
                                <g id="a" transform="translate(5.336667, 1.000000)">
                                    <ellipse id="Oval" transform="translate(19.585870, 1.284208) rotate(7.500000) translate(-19.585870, -1.284208) " cx="19.5858704" cy="1.28420836" rx="0.933916643" ry="0.875"></ellipse>
                                    <path d="M1.06733331,16.5 L1.70773329,6 L1.06733331,1 L0.426933322,6 L1.06733331,16.5 Z" id="Shape"></path>
                                </g>
                                <g id="a-link" transform="translate(13.058344, 11.505667) rotate(15.000000) translate(-13.058344, -11.505667) translate(2.385011, 3.005667)">
                                    <g id="a">
                                        <ellipse id="Oval" transform="translate(19.585870, 1.284208) rotate(7.500000) translate(-19.585870, -1.284208) " cx="19.5858704" cy="1.28420836" rx="0.933916643" ry="0.875"></ellipse>
                                        <path d="M1.06733331,16.5 L1.70773329,6 L1.06733331,1 L0.426933322,6 L1.06733331,16.5 Z" id="Shape"></path>
                                    </g>
                                </g>
                            </g>
                            <g id="b-link" transform="translate(18.015695, 16.209292) rotate(30.000000) translate(-18.015695, -16.209292) translate(4.674029, 4.709292)">
                                <g id="b">
                                    <g id="a" transform="translate(5.336667, 1.000000)">
                                        <ellipse id="Oval" transform="translate(19.585870, 1.284208) rotate(7.500000) translate(-19.585870, -1.284208) " cx="19.5858704" cy="1.28420836" rx="0.933916643" ry="0.875"></ellipse>
                                        <path d="M1.06733331,16.5 L1.70773329,6 L1.06733331,1 L0.426933322,6 L1.06733331,16.5 Z" id="Shape"></path>
                                    </g>
                                    <g id="a-link" transform="translate(13.058344, 11.505667) rotate(15.000000) translate(-13.058344, -11.505667) translate(2.385011, 3.005667)">
                                        <g id="a">
                                            <ellipse id="Oval" transform="translate(19.585870, 1.284208) rotate(7.500000) translate(-19.585870, -1.284208) " cx="19.5858704" cy="1.28420836" rx="0.933916643" ry="0.875"></ellipse>
                                            <path d="M1.06733331,16.5 L1.70773329,6 L1.06733331,1 L0.426933322,6 L1.06733331,16.5 Z" id="Shape"></path>
                                        </g>
                                    </g>
                                </g>
                            </g>
                        </g>
                        <g id="c-link" transform="translate(25.411773, 24.616025) rotate(60.000000) translate(-25.411773, -24.616025) translate(6.199773, 8.116025)">
                            <g id="c">
                                <g id="b" transform="translate(11.740666, 3.000000)">
                                    <g id="a" transform="translate(5.336667, 1.000000)">
                                        <ellipse id="Oval" transform="translate(19.585870, 1.284208) rotate(7.500000) translate(-19.585870, -1.284208) " cx="19.5858704" cy="1.28420836" rx="0.933916643" ry="0.875"></ellipse>
                                        <path d="M1.06733331,16.5 L1.70773329,6 L1.06733331,1 L0.426933322,6 L1.06733331,16.5 Z" id="Shape"></path>
                                    </g>
                                    <g id="a-link" transform="translate(13.058344, 11.505667) rotate(15.000000) translate(-13.058344, -11.505667) translate(2.385011, 3.005667)">
                                        <g id="a">
                                            <ellipse id="Oval" transform="translate(19.585870, 1.284208) rotate(7.500000) translate(-19.585870, -1.284208) " cx="19.5858704" cy="1.28420836" rx="0.933916643" ry="0.875"></ellipse>
                                            <path d="M1.06733331,16.5 L1.70773329,6 L1.06733331,1 L0.426933322,6 L1.06733331,16.5 Z" id="Shape"></path>
                                        </g>
                                    </g>
                                </g>
                                <g id="b-link" transform="translate(18.015695, 16.209292) rotate(30.000000) translate(-18.015695, -16.209292) translate(4.674029, 4.709292)">
                                    <g id="b">
                                        <g id="a" transform="translate(5.336667, 1.000000)">
                                            <ellipse id="Oval" transform="translate(19.585870, 1.284208) rotate(7.500000) translate(-19.585870, -1.284208) " cx="19.5858704" cy="1.28420836" rx="0.933916643" ry="0.875"></ellipse>
                                            <path d="M1.06733331,16.5 L1.70773329,6 L1.06733331,1 L0.426933322,6 L1.06733331,16.5 Z" id="Shape"></path>
                                        </g>
                                        <g id="a-link" transform="translate(13.058344, 11.505667) rotate(15.000000) translate(-13.058344, -11.505667) translate(2.385011, 3.005667)">
                                            <g id="a">
                                                <ellipse id="Oval" transform="translate(19.585870, 1.284208) rotate(7.500000) translate(-19.585870, -1.284208) " cx="19.5858704" cy="1.28420836" rx="0.933916643" ry="0.875"></ellipse>
                                                <path d="M1.06733331,16.5 L1.70773329,6 L1.06733331,1 L0.426933322,6 L1.06733331,16.5 Z" id="Shape"></path>
                                            </g>
                                        </g>
                                    </g>
                                </g>
                            </g>
                        </g>
                    </g>
                </g>
                <g id="d-link" transform="translate(51.760532, 50.178203) rotate(240.000000) translate(-51.760532, -50.178203) translate(22.942533, 25.678203)" fill="#000088">
                    <g id="d">
                        <g id="c" transform="translate(19.212000, 14.000000)">
                            <g id="b" transform="translate(11.740666, 3.000000)">
                                <g id="a" transform="translate(5.336667, 1.000000)">
                                    <ellipse id="Oval" transform="translate(19.585870, 1.284208) rotate(7.500000) translate(-19.585870, -1.284208) " cx="19.5858704" cy="1.28420836" rx="0.933916643" ry="0.875"></ellipse>
                                    <path d="M1.06733331,16.5 L1.70773329,6 L1.06733331,1 L0.426933322,6 L1.06733331,16.5 Z" id="Shape"></path>
                                </g>
                                <g id="a-link" transform="translate(13.058344, 11.505667) rotate(15.000000) translate(-13.058344, -11.505667) translate(2.385011, 3.005667)">
                                    <g id="a">
                                        <ellipse id="Oval" transform="translate(19.585870, 1.284208) rotate(7.500000) translate(-19.585870, -1.284208) " cx="19.5858704" cy="1.28420836" rx="0.933916643" ry="0.875"></ellipse>
                                        <path d="M1.06733331,16.5 L1.70773329,6 L1.06733331,1 L0.426933322,6 L1.06733331,16.5 Z" id="Shape"></path>
                                    </g>
                                </g>
                            </g>
                            <g id="b-link" transform="translate(18.015695, 16.209292) rotate(30.000000) translate(-18.015695, -16.209292) translate(4.674029, 4.709292)">
                                <g id="b">
                                    <g id="a" transform="translate(5.336667, 1.000000)">
                                        <ellipse id="Oval" transform="translate(19.585870, 1.284208) rotate(7.500000) translate(-19.585870, -1.284208) " cx="19.5858704" cy="1.28420836" rx="0.933916643" ry="0.875"></ellipse>
                                        <path d="M1.06733331,16.5 L1.70773329,6 L1.06733331,1 L0.426933322,6 L1.06733331,16.5 Z" id="Shape"></path>
                                    </g>
                                    <g id="a-link" transform="translate(13.058344, 11.505667) rotate(15.000000) translate(-13.058344, -11.505667) translate(2.385011, 3.005667)">
                                        <g id="a">
                                            <ellipse id="Oval" transform="translate(19.585870, 1.284208) rotate(7.500000) translate(-19.585870, -1.284208) " cx="19.5858704" cy="1.28420836" rx="0.933916643" ry="0.875"></ellipse>
                                            <path d="M1.06733331,16.5 L1.70773329,6 L1.06733331,1 L0.426933322,6 L1.06733331,16.5 Z" id="Shape"></path>
                                        </g>
                                    </g>
                                </g>
                            </g>
                        </g>
                        <g id="c-link" transform="translate(25.411773, 24.616025) rotate(60.000000) translate(-25.411773, -24.616025) translate(6.199773, 8.116025)">
                            <g id="c">
                                <g id="b" transform="translate(11.740666, 3.000000)">
                                    <g id="a" transform="translate(5.336667, 1.000000)">
                                        <ellipse id="Oval" transform="translate(19.585870, 1.284208) rotate(7.500000) translate(-19.585870, -1.284208) " cx="19.5858704" cy="1.28420836" rx="0.933916643" ry="0.875"></ellipse>
                                        <path d="M1.06733331,16.5 L1.70773329,6 L1.06733331,1 L0.426933322,6 L1.06733331,16.5 Z" id="Shape"></path>
                                    </g>
                                    <g id="a-link" transform="translate(13.058344, 11.505667) rotate(15.000000) translate(-13.058344, -11.505667) translate(2.385011, 3.005667)">
                                        <g id="a">
                                            <ellipse id="Oval" transform="translate(19.585870, 1.284208) rotate(7.500000) translate(-19.585870, -1.284208) " cx="19.5858704" cy="1.28420836" rx="0.933916643" ry="0.875"></ellipse>
                                            <path d="M1.06733331,16.5 L1.70773329,6 L1.06733331,1 L0.426933322,6 L1.06733331,16.5 Z" id="Shape"></path>
                                        </g>
                                    </g>
                                </g>
                                <g id="b-link" transform="translate(18.015695, 16.209292) rotate(30.000000) translate(-18.015695, -16.209292) translate(4.674029, 4.709292)">
                                    <g id="b">
                                        <g id="a" transform="translate(5.336667, 1.000000)">
                                            <ellipse id="Oval" transform="translate(19.585870, 1.284208) rotate(7.500000) translate(-19.585870, -1.284208) " cx="19.5858704" cy="1.28420836" rx="0.933916643" ry="0.875"></ellipse>
                                            <path d="M1.06733331,16.5 L1.70773329,6 L1.06733331,1 L0.426933322,6 L1.06733331,16.5 Z" id="Shape"></path>
                                        </g>
                                        <g id="a-link" transform="translate(13.058344, 11.505667) rotate(15.000000) translate(-13.058344, -11.505667) translate(2.385011, 3.005667)">
                                            <g id="a">
                                                <ellipse id="Oval" transform="translate(19.585870, 1.284208) rotate(7.500000) translate(-19.585870, -1.284208) " cx="19.5858704" cy="1.28420836" rx="0.933916643" ry="0.875"></ellipse>
                                                <path d="M1.06733331,16.5 L1.70773329,6 L1.06733331,1 L0.426933322,6 L1.06733331,16.5 Z" id="Shape"></path>
                                            </g>
                                        </g>
                                    </g>
                                </g>
                            </g>
                        </g>
                    </g>
                </g>
            </g>
        </g>
    </g>
</svg>