<?xml version="1.0" encoding="UTF-8"?>
<svg width="6244px" height="3900px" viewBox="0 0 6244 3900" version="1.1" xmlns="http://www.w3.org/2000/svg" xmlns:xlink="http://www.w3.org/1999/xlink">
    <!-- Generator: Sketch 41.2 (35397) - http://www.bohemiancoding.com/sketch -->
    <title>us</title>
    <desc>Created with Sketch.</desc>
    <defs></defs>
    <g id="Page-1" stroke="none" stroke-width="1" fill="none" fill-rule="evenodd">
        <g id="us">
            <rect id="Rectangle-path" fill="#B22234" x="0" y="0" width="6243.28772" height="3900"></rect>
            <path d="M0,450 L6243.28772,450 M6243.28772,1050 L0,1050 M0,1650 L6243.28772,1650 M6243.28772,2250 L0,2250 M0,2850 L6243.28772,2850 M6243.28772,3450 L0,3450" id="Shape" stroke="#FFFFFF" stroke-width="300" fill="#000000"></path>
            <rect id="Rectangle-path" fill="#3C3B6E" x="0" y="0" width="2962.86114" height="2100"></rect>
            <g id="Group" transform="translate(131.949282, 90.000000)" fill="#FFFFFF">
                <g id="s18">
                    <g id="s9">
                        <g id="s5">
                            <g id="s4">
                                <polygon id="s" points="114.955814 0 185.462942 217.082039 0.872882483 82.917961 229.038745 82.917961 44.4486849 217.082039"></polygon>
                                <g id="s-link" transform="translate(0.000000, 420.000000)">
                                    <polygon id="s" points="114.955814 0 185.462942 217.082039 0.872882483 82.917961 229.038745 82.917961 44.4486849 217.082039"></polygon>
                                </g>
                                <g id="s-link" transform="translate(0.000000, 840.000000)">
                                    <polygon id="s" points="114.955814 0 185.462942 217.082039 0.872882483 82.917961 229.038745 82.917961 44.4486849 217.082039"></polygon>
                                </g>
                                <g id="s-link" transform="translate(0.000000, 1260.000000)">
                                    <polygon id="s" points="114.955814 0 185.462942 217.082039 0.872882483 82.917961 229.038745 82.917961 44.4486849 217.082039"></polygon>
                                </g>
                            </g>
                            <g id="s-link" transform="translate(0.000000, 1680.000000)">
                                <polygon id="s" points="114.955814 0 185.462942 217.082039 0.872882483 82.917961 229.038745 82.917961 44.4486849 217.082039"></polygon>
                            </g>
                        </g>
                        <g id="s4-link" transform="translate(246.905095, 210.000000)">
                            <g id="s4">
                                <polygon id="s" points="114.955814 0 185.462942 217.082039 0.872882483 82.917961 229.038745 82.917961 44.4486849 217.082039"></polygon>
                                <g id="s-link" transform="translate(0.000000, 420.000000)">
                                    <polygon id="s" points="114.955814 0 185.462942 217.082039 0.872882483 82.917961 229.038745 82.917961 44.4486849 217.082039"></polygon>
                                </g>
                                <g id="s-link" transform="translate(0.000000, 840.000000)">
                                    <polygon id="s" points="114.955814 0 185.462942 217.082039 0.872882483 82.917961 229.038745 82.917961 44.4486849 217.082039"></polygon>
                                </g>
                                <g id="s-link" transform="translate(0.000000, 1260.000000)">
                                    <polygon id="s" points="114.955814 0 185.462942 217.082039 0.872882483 82.917961 229.038745 82.917961 44.4486849 217.082039"></polygon>
                                </g>
                            </g>
                        </g>
                    </g>
                    <g id="s9-link" transform="translate(493.810190, 0.000000)">
                        <g id="s9">
                            <g id="s5">
                                <g id="s4">
                                    <polygon id="s" points="114.955814 0 185.462942 217.082039 0.872882483 82.917961 229.038745 82.917961 44.4486849 217.082039"></polygon>
                                    <g id="s-link" transform="translate(0.000000, 420.000000)">
                                        <polygon id="s" points="114.955814 0 185.462942 217.082039 0.872882483 82.917961 229.038745 82.917961 44.4486849 217.082039"></polygon>
                                    </g>
                                    <g id="s-link" transform="translate(0.000000, 840.000000)">
                                        <polygon id="s" points="114.955814 0 185.462942 217.082039 0.872882483 82.917961 229.038745 82.917961 44.4486849 217.082039"></polygon>
                                    </g>
                                    <g id="s-link" transform="translate(0.000000, 1260.000000)">
                                        <polygon id="s" points="114.955814 0 185.462942 217.082039 0.872882483 82.917961 229.038745 82.917961 44.4486849 217.082039"></polygon>
                                    </g>
                                </g>
                                <g id="s-link" transform="translate(0.000000, 1680.000000)">
                                    <polygon id="s" points="114.955814 0 185.462942 217.082039 0.872882483 82.917961 229.038745 82.917961 44.4486849 217.082039"></polygon>
                                </g>
                            </g>
                            <g id="s4-link" transform="translate(246.905095, 210.000000)">
                                <g id="s4">
                                    <polygon id="s" points="114.955814 0 185.462942 217.082039 0.872882483 82.917961 229.038745 82.917961 44.4486849 217.082039"></polygon>
                                    <g id="s-link" transform="translate(0.000000, 420.000000)">
                                        <polygon id="s" points="114.955814 0 185.462942 217.082039 0.872882483 82.917961 229.038745 82.917961 44.4486849 217.082039"></polygon>
                                    </g>
                                    <g id="s-link" transform="translate(0.000000, 840.000000)">
                                        <polygon id="s" points="114.955814 0 185.462942 217.082039 0.872882483 82.917961 229.038745 82.917961 44.4486849 217.082039"></polygon>
                                    </g>
                                    <g id="s-link" transform="translate(0.000000, 1260.000000)">
                                        <polygon id="s" points="114.955814 0 185.462942 217.082039 0.872882483 82.917961 229.038745 82.917961 44.4486849 217.082039"></polygon>
                                    </g>
                                </g>
                            </g>
                        </g>
                    </g>
                </g>
                <g id="s18-link" transform="translate(987.620380, 0.000000)">
                    <g id="s18">
                        <g id="s9">
                            <g id="s5">
                                <g id="s4">
                                    <polygon id="s" points="114.955814 0 185.462942 217.082039 0.872882483 82.917961 229.038745 82.917961 44.4486849 217.082039"></polygon>
                                    <g id="s-link" transform="translate(0.000000, 420.000000)">
                                        <polygon id="s" points="114.955814 0 185.462942 217.082039 0.872882483 82.917961 229.038745 82.917961 44.4486849 217.082039"></polygon>
                                    </g>
                                    <g id="s-link" transform="translate(0.000000, 840.000000)">
                                        <polygon id="s" points="114.955814 0 185.462942 217.082039 0.872882483 82.917961 229.038745 82.917961 44.4486849 217.082039"></polygon>
                                    </g>
                                    <g id="s-link" transform="translate(0.000000, 1260.000000)">
                                        <polygon id="s" points="114.955814 0 185.462942 217.082039 0.872882483 82.917961 229.038745 82.917961 44.4486849 217.082039"></polygon>
                                    </g>
                                </g>
                                <g id="s-link" transform="translate(0.000000, 1680.000000)">
                                    <polygon id="s" points="114.955814 0 185.462942 217.082039 0.872882483 82.917961 229.038745 82.917961 44.4486849 217.082039"></polygon>
                                </g>
                            </g>
                            <g id="s4-link" transform="translate(246.905095, 210.000000)">
                                <g id="s4">
                                    <polygon id="s" points="114.955814 0 185.462942 217.082039 0.872882483 82.917961 229.038745 82.917961 44.4486849 217.082039"></polygon>
                                    <g id="s-link" transform="translate(0.000000, 420.000000)">
                                        <polygon id="s" points="114.955814 0 185.462942 217.082039 0.872882483 82.917961 229.038745 82.917961 44.4486849 217.082039"></polygon>
                                    </g>
                                    <g id="s-link" transform="translate(0.000000, 840.000000)">
                                        <polygon id="s" points="114.955814 0 185.462942 217.082039 0.872882483 82.917961 229.038745 82.917961 44.4486849 217.082039"></polygon>
                                    </g>
                                    <g id="s-link" transform="translate(0.000000, 1260.000000)">
                                        <polygon id="s" points="114.955814 0 185.462942 217.082039 0.872882483 82.917961 229.038745 82.917961 44.4486849 217.082039"></polygon>
                                    </g>
                                </g>
                            </g>
                        </g>
                        <g id="s9-link" transform="translate(493.810190, 0.000000)">
                            <g id="s9">
                                <g id="s5">
                                    <g id="s4">
                                        <polygon id="s" points="114.955814 0 185.462942 217.082039 0.872882483 82.917961 229.038745 82.917961 44.4486849 217.082039"></polygon>
                                        <g id="s-link" transform="translate(0.000000, 420.000000)">
                                            <polygon id="s" points="114.955814 0 185.462942 217.082039 0.872882483 82.917961 229.038745 82.917961 44.4486849 217.082039"></polygon>
                                        </g>
                                        <g id="s-link" transform="translate(0.000000, 840.000000)">
                                            <polygon id="s" points="114.955814 0 185.462942 217.082039 0.872882483 82.917961 229.038745 82.917961 44.4486849 217.082039"></polygon>
                                        </g>
                                        <g id="s-link" transform="translate(0.000000, 1260.000000)">
                                            <polygon id="s" points="114.955814 0 185.462942 217.082039 0.872882483 82.917961 229.038745 82.917961 44.4486849 217.082039"></polygon>
                                        </g>
                                    </g>
                                    <g id="s-link" transform="translate(0.000000, 1680.000000)">
                                        <polygon id="s" points="114.955814 0 185.462942 217.082039 0.872882483 82.917961 229.038745 82.917961 44.4486849 217.082039"></polygon>
                                    </g>
                                </g>
                                <g id="s4-link" transform="translate(246.905095, 210.000000)">
                                    <g id="s4">
                                        <polygon id="s" points="114.955814 0 185.462942 217.082039 0.872882483 82.917961 229.038745 82.917961 44.4486849 217.082039"></polygon>
                                        <g id="s-link" transform="translate(0.000000, 420.000000)">
                                            <polygon id="s" points="114.955814 0 185.462942 217.082039 0.872882483 82.917961 229.038745 82.917961 44.4486849 217.082039"></polygon>
                                        </g>
                                        <g id="s-link" transform="translate(0.000000, 840.000000)">
                                            <polygon id="s" points="114.955814 0 185.462942 217.082039 0.872882483 82.917961 229.038745 82.917961 44.4486849 217.082039"></polygon>
                                        </g>
                                        <g id="s-link" transform="translate(0.000000, 1260.000000)">
                                            <polygon id="s" points="114.955814 0 185.462942 217.082039 0.872882483 82.917961 229.038745 82.917961 44.4486849 217.082039"></polygon>
                                        </g>
                                    </g>
                                </g>
                            </g>
                        </g>
                    </g>
                </g>
                <g id="s9-link" transform="translate(1975.240761, 0.000000)">
                    <g id="s9">
                        <g id="s5">
                            <g id="s4">
                                <polygon id="s" points="114.955814 0 185.462942 217.082039 0.872882483 82.917961 229.038745 82.917961 44.4486849 217.082039"></polygon>
                                <g id="s-link" transform="translate(0.000000, 420.000000)">
                                    <polygon id="s" points="114.955814 0 185.462942 217.082039 0.872882483 82.917961 229.038745 82.917961 44.4486849 217.082039"></polygon>
                                </g>
                                <g id="s-link" transform="translate(0.000000, 840.000000)">
                                    <polygon id="s" points="114.955814 0 185.462942 217.082039 0.872882483 82.917961 229.038745 82.917961 44.4486849 217.082039"></polygon>
                                </g>
                                <g id="s-link" transform="translate(0.000000, 1260.000000)">
                                    <polygon id="s" points="114.955814 0 185.462942 217.082039 0.872882483 82.917961 229.038745 82.917961 44.4486849 217.082039"></polygon>
                                </g>
                            </g>
                            <g id="s-link" transform="translate(0.000000, 1680.000000)">
                                <polygon id="s" points="114.955814 0 185.462942 217.082039 0.872882483 82.917961 229.038745 82.917961 44.4486849 217.082039"></polygon>
                            </g>
                        </g>
                        <g id="s4-link" transform="translate(246.905095, 210.000000)">
                            <g id="s4">
                                <polygon id="s" points="114.955814 0 185.462942 217.082039 0.872882483 82.917961 229.038745 82.917961 44.4486849 217.082039"></polygon>
                                <g id="s-link" transform="translate(0.000000, 420.000000)">
                                    <polygon id="s" points="114.955814 0 185.462942 217.082039 0.872882483 82.917961 229.038745 82.917961 44.4486849 217.082039"></polygon>
                                </g>
                                <g id="s-link" transform="translate(0.000000, 840.000000)">
                                    <polygon id="s" points="114.955814 0 185.462942 217.082039 0.872882483 82.917961 229.038745 82.917961 44.4486849 217.082039"></polygon>
                                </g>
                                <g id="s-link" transform="translate(0.000000, 1260.000000)">
                                    <polygon id="s" points="114.955814 0 185.462942 217.082039 0.872882483 82.917961 229.038745 82.917961 44.4486849 217.082039"></polygon>
                                </g>
                            </g>
                        </g>
                    </g>
                </g>
                <g id="s5-link" transform="translate(2469.050951, 0.000000)">
                    <g id="s5">
                        <g id="s4">
                            <polygon id="s" points="114.955814 0 185.462942 217.082039 0.872882483 82.917961 229.038745 82.917961 44.4486849 217.082039"></polygon>
                            <g id="s-link" transform="translate(0.000000, 420.000000)">
                                <polygon id="s" points="114.955814 0 185.462942 217.082039 0.872882483 82.917961 229.038745 82.917961 44.4486849 217.082039"></polygon>
                            </g>
                            <g id="s-link" transform="translate(0.000000, 840.000000)">
                                <polygon id="s" points="114.955814 0 185.462942 217.082039 0.872882483 82.917961 229.038745 82.917961 44.4486849 217.082039"></polygon>
                            </g>
                            <g id="s-link" transform="translate(0.000000, 1260.000000)">
                                <polygon id="s" points="114.955814 0 185.462942 217.082039 0.872882483 82.917961 229.038745 82.917961 44.4486849 217.082039"></polygon>
                            </g>
                        </g>
                        <g id="s-link" transform="translate(0.000000, 1680.000000)">
                            <polygon id="s" points="114.955814 0 185.462942 217.082039 0.872882483 82.917961 229.038745 82.917961 44.4486849 217.082039"></polygon>
                        </g>
                    </g>
                </g>
            </g>
        </g>
    </g>
</svg>