<?xml version="1.0" encoding="UTF-8"?>
<svg width="60px" height="77px" viewBox="0 0 60 77" version="1.1" xmlns="http://www.w3.org/2000/svg" xmlns:xlink="http://www.w3.org/1999/xlink">
    <!-- Generator: Sketch 41.2 (35397) - http://www.bohemiancoding.com/sketch -->
    <title>building-front</title>
    <desc>Created with Sketch.</desc>
    <defs>
        <polygon id="path-1" points="29.9455435 0.130434783 0.0391304348 0.130434783 0.0391304348 76.305 59.8519565 76.305 59.8519565 0.130434783 29.9455435 0.130434783"></polygon>
    </defs>
    <g id="Page-1" stroke="none" stroke-width="1" fill="none" fill-rule="evenodd">
        <g id="building-front">
            <g id="Group-3">
                <mask id="mask-2" fill="white">
                    <use xlink:href="#path-1"></use>
                </mask>
                <g id="Clip-2"></g>
                <path d="M59.0445652,0.937826087 C58.5045652,0.400434783 57.8673913,0.130434783 57.1317391,0.130434783 L2.72086957,0.130434783 C1.98456522,0.130434783 1.34478261,0.400434783 0.807391304,0.937826087 C0.27,1.47521739 0,2.115 0,2.85130435 L0,73.5841304 C0,74.3204348 0.27,74.9569565 0.807391304,75.4969565 C1.3473913,76.035 1.98456522,76.305 2.72086957,76.305 L57.1317391,76.305 C57.8673913,76.305 58.5045652,76.035 59.0445652,75.4969565 C59.5819565,74.9569565 59.8519565,74.3204348 59.8519565,73.5841304 L59.8519565,2.85130435 C59.8519565,2.115 59.5819565,1.47521739 59.0445652,0.937826087 Z M54.4108696,70.8632609 L38.0882609,70.8632609 L38.0882609,61.3428261 C38.0882609,60.9736957 37.9532609,60.6554348 37.6832609,60.3854348 C37.4132609,60.1154348 37.095,59.9823913 36.7278261,59.9823913 L23.1241304,59.9823913 C22.7576087,59.9823913 22.436087,60.1154348 22.1686957,60.3854348 C21.8986957,60.6554348 21.7636957,60.9736957 21.7636957,61.3428261 L21.7636957,70.8632609 L5.44173913,70.8632609 L5.44173913,5.57217391 L54.4108696,5.57217391 L54.4108696,70.8632609 Z" id="Fill-1" fill="#15A2ED" mask="url(#mask-2)"></path>
            </g>
            <path d="M12.2432609,59.9823913 L14.9615217,59.9823913 C15.3313043,59.9823913 15.6495652,59.8473913 15.9195652,59.5773913 C16.1895652,59.3073913 16.3219565,58.9917391 16.3219565,58.6219565 L16.3219565,55.9017391 C16.3219565,55.5319565 16.1895652,55.2136957 15.9195652,54.9436957 C15.6495652,54.6763043 15.3313043,54.5413043 14.9615217,54.5413043 L12.2432609,54.5413043 C11.8741304,54.5413043 11.5558696,54.6763043 11.2858696,54.9436957 C11.0184783,55.2136957 10.8834783,55.5319565 10.8834783,55.9017391 L10.8834783,58.6219565 C10.8834783,58.9917391 11.0184783,59.3073913 11.2858696,59.5773913 C11.5558696,59.8473913 11.8741304,59.9823913 12.2432609,59.9823913 Z" id="Fill-4" fill="#15A2ED"></path>
            <path d="M12.2432609,49.0995652 L14.9615217,49.0995652 C15.3313043,49.0995652 15.6495652,48.9645652 15.9195652,48.6971739 C16.1895652,48.4271739 16.3219565,48.1082609 16.3219565,47.7391304 L16.3219565,45.0182609 C16.3219565,44.6517391 16.1895652,44.3302174 15.9195652,44.0628261 C15.6495652,43.7928261 15.3313043,43.6578261 14.9615217,43.6578261 L12.2432609,43.6578261 C11.8741304,43.6578261 11.5558696,43.7928261 11.2858696,44.0628261 C11.0184783,44.3302174 10.8834783,44.6517391 10.8834783,45.0182609 L10.8834783,47.7391304 C10.8834783,48.1082609 11.0184783,48.4271739 11.2858696,48.6971739 C11.5558696,48.9645652 11.8741304,49.0995652 12.2432609,49.0995652 Z" id="Fill-5" fill="#15A2ED"></path>
            <path d="M23.1241304,49.0995652 L25.845,49.0995652 C26.2141304,49.0995652 26.5330435,48.9645652 26.8030435,48.6971739 C27.0704348,48.4271739 27.2054348,48.1082609 27.2054348,47.7391304 L27.2054348,45.0182609 C27.2054348,44.6517391 27.0704348,44.3302174 26.8030435,44.0628261 C26.5330435,43.7928261 26.2141304,43.6578261 25.845,43.6578261 L23.1241304,43.6578261 C22.7576087,43.6578261 22.4386957,43.7928261 22.1686957,44.0628261 C21.8986957,44.3302174 21.7636957,44.6517391 21.7636957,45.0182609 L21.7636957,47.7391304 C21.7636957,48.1082609 21.8986957,48.4271739 22.1686957,48.6971739 C22.4386957,48.9645652 22.7576087,49.0995652 23.1241304,49.0995652 Z" id="Fill-6" fill="#15A2ED"></path>
            <path d="M12.2432609,38.216087 L14.9615217,38.216087 C15.3313043,38.216087 15.6495652,38.0836957 15.9195652,37.8136957 C16.1895652,37.5436957 16.3219565,37.2254348 16.3219565,36.8556522 L16.3219565,34.1380435 C16.3219565,33.7682609 16.1895652,33.45 15.9195652,33.18 C15.6495652,32.9126087 15.3313043,32.7776087 14.9615217,32.7776087 L12.2432609,32.7776087 C11.8741304,32.7776087 11.5558696,32.9126087 11.2858696,33.18 C11.0184783,33.45 10.8834783,33.7682609 10.8834783,34.1380435 L10.8834783,36.8556522 C10.8834783,37.2254348 11.0184783,37.5436957 11.2858696,37.8136957 C11.5558696,38.0836957 11.8741304,38.216087 12.2432609,38.216087 Z" id="Fill-7" fill="#15A2ED"></path>
            <path d="M44.8878261,59.9823913 L47.6086957,59.9823913 C47.9778261,59.9823913 48.2967391,59.8473913 48.5667391,59.5773913 C48.8341304,59.3073913 48.9691304,58.9917391 48.9691304,58.6219565 L48.9691304,55.9017391 C48.9691304,55.5319565 48.8341304,55.2136957 48.5667391,54.9436957 C48.2967391,54.6763043 47.9778261,54.5413043 47.6086957,54.5413043 L44.8878261,54.5413043 C44.5213043,54.5413043 44.2023913,54.6763043 43.9323913,54.9436957 C43.6623913,55.2136957 43.53,55.5319565 43.53,55.9017391 L43.53,58.6219565 C43.53,58.9917391 43.6623913,59.3073913 43.9323913,59.5773913 C44.1997826,59.8473913 44.5213043,59.9823913 44.8878261,59.9823913 Z" id="Fill-8" fill="#15A2ED"></path>
            <path d="M34.0076087,49.0995652 L36.7278261,49.0995652 C37.095,49.0995652 37.4132609,48.9645652 37.6832609,48.6971739 C37.9532609,48.4271739 38.0856522,48.1082609 38.0856522,47.7391304 L38.0856522,45.0182609 C38.0856522,44.6517391 37.9532609,44.3302174 37.6832609,44.0628261 C37.4132609,43.7928261 37.095,43.6578261 36.7278261,43.6578261 L34.0076087,43.6578261 C33.6378261,43.6578261 33.3195652,43.7928261 33.0495652,44.0628261 C32.7821739,44.3302174 32.6471739,44.6517391 32.6471739,45.0182609 L32.6471739,47.7391304 C32.6471739,48.1082609 32.7821739,48.4271739 33.0495652,48.6971739 C33.3195652,48.9645652 33.6378261,49.0995652 34.0076087,49.0995652 Z" id="Fill-9" fill="#15A2ED"></path>
            <path d="M23.1241304,38.216087 L25.845,38.216087 C26.2141304,38.216087 26.5330435,38.0836957 26.8030435,37.8136957 C27.0704348,37.5436957 27.2054348,37.2254348 27.2054348,36.8556522 L27.2054348,34.1380435 C27.2054348,33.7682609 27.0704348,33.45 26.8030435,33.18 C26.5330435,32.9126087 26.2141304,32.7776087 25.845,32.7776087 L23.1241304,32.7776087 C22.7576087,32.7776087 22.4386957,32.9126087 22.1686957,33.18 C21.8986957,33.45 21.7636957,33.7682609 21.7636957,34.1380435 L21.7636957,36.8556522 C21.7636957,37.2254348 21.8986957,37.5436957 22.1686957,37.8136957 C22.4386957,38.0836957 22.7576087,38.216087 23.1241304,38.216087 Z" id="Fill-10" fill="#15A2ED"></path>
            <path d="M12.2432609,27.3358696 L14.9615217,27.3358696 C15.3313043,27.3358696 15.6495652,27.2008696 15.9195652,26.9308696 C16.1895652,26.6634783 16.3219565,26.3445652 16.3219565,25.9754348 L16.3219565,23.2545652 C16.3219565,22.8880435 16.1895652,22.5665217 15.9195652,22.2991304 C15.6495652,22.0291304 15.3313043,21.8941304 14.9615217,21.8941304 L12.2432609,21.8941304 C11.8741304,21.8941304 11.5558696,22.0291304 11.2858696,22.2991304 C11.0184783,22.5665217 10.8834783,22.8880435 10.8834783,23.2545652 L10.8834783,25.9754348 C10.8834783,26.3445652 11.0184783,26.6634783 11.2858696,26.9308696 C11.5558696,27.2008696 11.8741304,27.3358696 12.2432609,27.3358696 Z" id="Fill-11" fill="#15A2ED"></path>
            <path d="M44.8878261,49.0995652 L47.6086957,49.0995652 C47.9778261,49.0995652 48.2967391,48.9645652 48.5667391,48.6971739 C48.8341304,48.4271739 48.9691304,48.1082609 48.9691304,47.7391304 L48.9691304,45.0182609 C48.9691304,44.6517391 48.8341304,44.3302174 48.5667391,44.0628261 C48.2967391,43.7928261 47.9778261,43.6578261 47.6086957,43.6578261 L44.8878261,43.6578261 C44.5213043,43.6578261 44.2023913,43.7928261 43.9323913,44.0628261 C43.6623913,44.3302174 43.53,44.6517391 43.53,45.0182609 L43.53,47.7391304 C43.53,48.1082609 43.6623913,48.4271739 43.9323913,48.6971739 C44.1997826,48.9645652 44.5213043,49.0995652 44.8878261,49.0995652 Z" id="Fill-12" fill="#15A2ED"></path>
            <path d="M34.0076087,38.216087 L36.7278261,38.216087 C37.095,38.216087 37.4132609,38.0836957 37.6832609,37.8136957 C37.9532609,37.5436957 38.0856522,37.2254348 38.0856522,36.8556522 L38.0856522,34.1380435 C38.0856522,33.7682609 37.9532609,33.45 37.6832609,33.18 C37.4132609,32.9126087 37.095,32.7776087 36.7278261,32.7776087 L34.0076087,32.7776087 C33.6378261,32.7776087 33.3195652,32.9126087 33.0495652,33.18 C32.7821739,33.45 32.6471739,33.7682609 32.6471739,34.1380435 L32.6471739,36.8556522 C32.6471739,37.2254348 32.7821739,37.5436957 33.0495652,37.8136957 C33.3195652,38.0836957 33.6378261,38.216087 34.0076087,38.216087 Z" id="Fill-13" fill="#15A2ED"></path>
            <path d="M23.1241304,27.3358696 L25.845,27.3358696 C26.2141304,27.3358696 26.5330435,27.2008696 26.8030435,26.9308696 C27.0704348,26.6634783 27.2054348,26.3445652 27.2054348,25.9754348 L27.2054348,23.2545652 C27.2054348,22.8880435 27.0704348,22.5665217 26.8030435,22.2991304 C26.5330435,22.0291304 26.2141304,21.8941304 25.845,21.8941304 L23.1241304,21.8941304 C22.7576087,21.8941304 22.4386957,22.0291304 22.1686957,22.2991304 C21.8986957,22.5665217 21.7636957,22.8880435 21.7636957,23.2545652 L21.7636957,25.9754348 C21.7636957,26.3445652 21.8986957,26.6634783 22.1686957,26.9308696 C22.4386957,27.2008696 22.7576087,27.3358696 23.1241304,27.3358696 Z" id="Fill-14" fill="#15A2ED"></path>
            <path d="M12.2432609,16.4523913 L14.9615217,16.4523913 C15.3313043,16.4523913 15.6495652,16.3173913 15.9195652,16.05 C16.1895652,15.78 16.3219565,15.4617391 16.3219565,15.0919565 L16.3219565,12.3717391 C16.3219565,12.0045652 16.1895652,11.6863043 15.9195652,11.4163043 C15.6495652,11.1463043 15.3313043,11.0132609 14.9615217,11.0132609 L12.2432609,11.0132609 C11.8741304,11.0132609 11.5558696,11.1463043 11.2858696,11.4163043 C11.0184783,11.6863043 10.8834783,12.0045652 10.8834783,12.3717391 L10.8834783,15.0919565 C10.8834783,15.4617391 11.0184783,15.78 11.2858696,16.05 C11.5558696,16.3173913 11.8741304,16.4523913 12.2432609,16.4523913 Z" id="Fill-15" fill="#15A2ED"></path>
            <path d="M44.8878261,38.216087 L47.6086957,38.216087 C47.9778261,38.216087 48.2967391,38.0836957 48.5667391,37.8136957 C48.8341304,37.5436957 48.9691304,37.2254348 48.9691304,36.8556522 L48.9691304,34.1380435 C48.9691304,33.7682609 48.8341304,33.45 48.5667391,33.18 C48.2967391,32.9126087 47.9778261,32.7776087 47.6086957,32.7776087 L44.8878261,32.7776087 C44.5213043,32.7776087 44.2023913,32.9126087 43.9323913,33.18 C43.6623913,33.45 43.53,33.7682609 43.53,34.1380435 L43.53,36.8556522 C43.53,37.2254348 43.6623913,37.5436957 43.9323913,37.8136957 C44.1997826,38.0836957 44.5213043,38.216087 44.8878261,38.216087 Z" id="Fill-16" fill="#15A2ED"></path>
            <path d="M34.0076087,27.3358696 L36.7278261,27.3358696 C37.095,27.3358696 37.4132609,27.2008696 37.6832609,26.9308696 C37.9532609,26.6634783 38.0856522,26.3445652 38.0856522,25.9754348 L38.0856522,23.2545652 C38.0856522,22.8880435 37.9532609,22.5665217 37.6832609,22.2991304 C37.4132609,22.0291304 37.095,21.8941304 36.7278261,21.8941304 L34.0076087,21.8941304 C33.6378261,21.8941304 33.3195652,22.0291304 33.0495652,22.2991304 C32.7821739,22.5665217 32.6471739,22.8880435 32.6471739,23.2545652 L32.6471739,25.9754348 C32.6471739,26.3445652 32.7821739,26.6634783 33.0495652,26.9308696 C33.3195652,27.2008696 33.6378261,27.3358696 34.0076087,27.3358696 Z" id="Fill-17" fill="#15A2ED"></path>
            <path d="M23.1241304,16.4523913 L25.845,16.4523913 C26.2141304,16.4523913 26.5330435,16.3173913 26.8030435,16.05 C27.0704348,15.78 27.2054348,15.4617391 27.2054348,15.0919565 L27.2054348,12.3717391 C27.2054348,12.0045652 27.0704348,11.6863043 26.8030435,11.4163043 C26.5330435,11.1463043 26.2141304,11.0132609 25.845,11.0132609 L23.1241304,11.0132609 C22.7576087,11.0132609 22.4386957,11.1463043 22.1686957,11.4163043 C21.8986957,11.6863043 21.7636957,12.0045652 21.7636957,12.3717391 L21.7636957,15.0919565 C21.7636957,15.4617391 21.8986957,15.78 22.1686957,16.05 C22.4386957,16.3173913 22.7576087,16.4523913 23.1241304,16.4523913 Z" id="Fill-18" fill="#15A2ED"></path>
            <path d="M44.8878261,27.3358696 L47.6086957,27.3358696 C47.9778261,27.3358696 48.2967391,27.2008696 48.5667391,26.9308696 C48.8341304,26.6634783 48.9691304,26.3445652 48.9691304,25.9754348 L48.9691304,23.2545652 C48.9691304,22.8880435 48.8341304,22.5665217 48.5667391,22.2991304 C48.2967391,22.0291304 47.9778261,21.8941304 47.6086957,21.8941304 L44.8878261,21.8941304 C44.5213043,21.8941304 44.2023913,22.0291304 43.9323913,22.2991304 C43.6623913,22.5665217 43.53,22.8880435 43.53,23.2545652 L43.53,25.9754348 C43.53,26.3445652 43.6623913,26.6634783 43.9323913,26.9308696 C44.1997826,27.2008696 44.5213043,27.3358696 44.8878261,27.3358696 Z" id="Fill-19" fill="#15A2ED"></path>
            <path d="M34.0076087,16.4523913 L36.7278261,16.4523913 C37.095,16.4523913 37.4132609,16.3173913 37.6832609,16.05 C37.9532609,15.78 38.0856522,15.4617391 38.0856522,15.0919565 L38.0856522,12.3717391 C38.0856522,12.0045652 37.9532609,11.6863043 37.6832609,11.4163043 C37.4132609,11.1463043 37.095,11.0132609 36.7278261,11.0132609 L34.0076087,11.0132609 C33.6378261,11.0132609 33.3195652,11.1463043 33.0495652,11.4163043 C32.7821739,11.6863043 32.6471739,12.0045652 32.6471739,12.3717391 L32.6471739,15.0919565 C32.6471739,15.4617391 32.7821739,15.78 33.0495652,16.05 C33.3195652,16.3173913 33.6378261,16.4523913 34.0076087,16.4523913 Z" id="Fill-20" fill="#15A2ED"></path>
            <path d="M44.8878261,16.4523913 L47.6086957,16.4523913 C47.9778261,16.4523913 48.2967391,16.3173913 48.5667391,16.05 C48.8341304,15.78 48.9691304,15.4617391 48.9691304,15.0919565 L48.9691304,12.3717391 C48.9691304,12.0045652 48.8341304,11.6863043 48.5667391,11.4163043 C48.2967391,11.1463043 47.9778261,11.0132609 47.6086957,11.0132609 L44.8878261,11.0132609 C44.5213043,11.0132609 44.2023913,11.1463043 43.9323913,11.4163043 C43.6623913,11.6863043 43.53,12.0045652 43.53,12.3717391 L43.53,15.0919565 C43.53,15.4617391 43.6623913,15.78 43.9323913,16.05 C44.1997826,16.3173913 44.5213043,16.4523913 44.8878261,16.4523913 Z" id="Fill-21" fill="#15A2ED"></path>
        </g>
    </g>
</svg>