<?xml version="1.0" encoding="UTF-8"?>
<svg width="16px" height="16px" viewBox="0 0 16 16" version="1.1" xmlns="http://www.w3.org/2000/svg" xmlns:xlink="http://www.w3.org/1999/xlink">
    <!-- Generator: Sketch 41.2 (35397) - http://www.bohemiancoding.com/sketch -->
    <title>chat-icon</title>
    <desc>Created with Sketch.</desc>
    <defs>
        <path d="M15.916963,13.9476 L14.6974074,10.5726 C15.0772593,9.663 15.287037,8.6622 15.287037,7.6122 C15.2876296,3.408 11.9217037,0 7.7688148,0 C3.61651852,0 0.25,3.408 0.25,7.6128 C0.25,11.8176 3.61592593,15.2256 7.7688148,15.2256 C9.5501481,15.2256 11.1845185,14.595 12.4728148,13.5474 L15.2212593,14.637 C15.8280741,14.8782 16.1415556,14.5674 15.916963,13.9476 L15.916963,13.9476 Z M4.02837037,8.5872 C3.49681481,8.5872 3.06540741,8.1504 3.06540741,7.6122 C3.06540741,7.074 3.49681481,6.6372 4.02837037,6.6372 C4.55992593,6.6372 4.99133333,7.074 4.99133333,7.6122 C4.99133333,8.1504 4.55992593,8.5872 4.02837037,8.5872 L4.02837037,8.5872 Z M7.5839259,8.5872 C7.0523704,8.5872 6.620963,8.1504 6.620963,7.6122 C6.620963,7.074 7.0523704,6.6372 7.5839259,6.6372 C8.1154815,6.6372 8.5468889,7.074 8.5468889,7.6122 C8.5468889,8.1504 8.1154815,8.5872 7.5839259,8.5872 L7.5839259,8.5872 Z M11.1394815,8.5872 C10.6079259,8.5872 10.1765185,8.1504 10.1765185,7.6122 C10.1765185,7.074 10.6079259,6.6372 11.1394815,6.6372 C11.671037,6.6372 12.1024444,7.074 12.1024444,7.6122 C12.1024444,8.1504 11.671037,8.5872 11.1394815,8.5872 L11.1394815,8.5872 Z" id="path-1"></path>
    </defs>
    <g id="Page-1" stroke="none" stroke-width="1" fill="none" fill-rule="evenodd">
        <g id="chat-icon">
            <g id="Page-1">
                <g id="chat-icon">
                    <g id="Page-1">
                        <g id="chat-icon" transform="translate(8.000000, 8.000000) scale(-1, 1) translate(-8.000000, -8.000000) ">
                            <g id="Symbols">
                                <g id="nav-/-navbar">
                                    <g id="right-section">
                                        <g id="icon-/-chat">
                                            <g id="color-/-primary-/-gray-dark-Clipped">
                                                <g>
                                                    <mask id="mask-2" fill="white">
                                                        <use xlink:href="#path-1"></use>
                                                    </mask>
                                                    <g id="path-1"></g>
                                                    <g id="color-/-primary-/-gray-dark" mask="url(#mask-2)">
                                                        <g transform="translate(-41.000000, -40.000000)" id="Rectangle">
                                                            <g>
                                                                <g id="Group" fill="#FFFFFF">
                                                                    <g id="Rectangle-path">
                                                                        <rect x="0" y="0" width="100" height="100"></rect>
                                                                    </g>
                                                                </g>
                                                            </g>
                                                        </g>
                                                    </g>
                                                </g>
                                            </g>
                                        </g>
                                    </g>
                                </g>
                            </g>
                        </g>
                    </g>
                </g>
            </g>
        </g>
    </g>
</svg>