<?xml version="1.0" encoding="UTF-8"?>
<svg width="60px" height="56px" viewBox="0 0 60 56" version="1.1" xmlns="http://www.w3.org/2000/svg" xmlns:xlink="http://www.w3.org/1999/xlink">
    <!-- Generator: Sketch 41.2 (35397) - http://www.bohemiancoding.com/sketch -->
    <title>fields-icon</title>
    <desc>Created with Sketch.</desc>
    <defs>
        <polygon id="path-1" points="59.0815385 55.1076923 0 55.1076923 0 27.5538462 0 0 59.0815385 0"></polygon>
    </defs>
    <g id="Page-1" stroke="none" stroke-width="1" fill="none" fill-rule="evenodd">
        <g id="fields-icon">
            <g id="Page-1">
                <g id="fields-icon">
                    <g id="Page-1">
                        <g id="table">
                            <g id="Fill-1-Clipped">
                                <g>
                                    <mask id="mask-2" fill="white">
                                        <use xlink:href="#path-1"></use>
                                    </mask>
                                    <g id="path-1"></g>
                                    <path d="M0,55.3846154 L59.0815385,55.3846154 L59.0815385,0 L0,0 L0,55.3846154 Z M3.69692308,51.6876923 L18.4615385,51.6876923 L18.4615385,44.3169231 L3.69692308,44.3169231 L3.69692308,51.6876923 Z M3.69692308,40.62 L18.4615385,40.62 L18.4615385,33.2261538 L3.69692308,33.2261538 L3.69692308,40.62 Z M3.69692308,29.5292308 L18.4615385,29.5292308 L18.4615385,22.1584615 L3.69692308,22.1584615 L3.69692308,29.5292308 Z M3.69692308,18.4615385 L18.4615385,18.4615385 L18.4615385,11.0676923 L3.69692308,11.0676923 L3.69692308,18.4615385 Z M22.1584615,51.6876923 L36.9230769,51.6876923 L36.9230769,44.3169231 L22.1584615,44.3169231 L22.1584615,51.6876923 Z M22.1584615,40.62 L36.9230769,40.62 L36.9230769,33.2261538 L22.1584615,33.2261538 L22.1584615,40.62 Z M22.1584615,29.5292308 L36.9230769,29.5292308 L36.9230769,22.1584615 L22.1584615,22.1584615 L22.1584615,29.5292308 Z M22.1584615,18.4615385 L36.9230769,18.4615385 L36.9230769,11.0676923 L22.1584615,11.0676923 L22.1584615,18.4615385 Z M40.62,51.6876923 L55.3846154,51.6876923 L55.3846154,44.3169231 L40.62,44.3169231 L40.62,51.6876923 Z M40.62,40.62 L55.3846154,40.62 L55.3846154,33.2261538 L40.62,33.2261538 L40.62,40.62 Z M40.62,29.5292308 L55.3846154,29.5292308 L55.3846154,22.1584615 L40.62,22.1584615 L40.62,29.5292308 Z M40.62,18.4615385 L55.3846154,18.4615385 L55.3846154,11.0676923 L40.62,11.0676923 L40.62,18.4615385 Z" id="Fill-1" fill="#344050" mask="url(#mask-2)"></path>
                                </g>
                            </g>
                        </g>
                    </g>
                </g>
            </g>
        </g>
    </g>
</svg>