<?xml version="1.0" encoding="UTF-8"?>
<svg width="16px" height="16px" viewBox="0 0 16 16" version="1.1" xmlns="http://www.w3.org/2000/svg" xmlns:xlink="http://www.w3.org/1999/xlink">
    <!-- Generator: Sketch 41.2 (35397) - http://www.bohemiancoding.com/sketch -->
    <title>help-icon</title>
    <desc>Created with Sketch.</desc>
    <defs>
        <path d="M8,16 C12.418278,16 16,12.418278 16,8 C16,3.581722 12.418278,0 8,0 C3.581722,0 0,3.581722 0,8 C0,12.418278 3.581722,16 8,16 Z M6.7228571,11.5028571 C6.7228571,11.2114271 6.8128562,10.9714295 6.9928571,10.7828571 C7.172858,10.5942848 7.3999986,10.5 7.6742857,10.5 C7.9485728,10.5 8.1778562,10.5942848 8.3621429,10.7828571 C8.5464295,10.9714295 8.6385714,11.2114271 8.6385714,11.5028571 C8.6385714,11.7942872 8.5464295,12.0342848 8.3621429,12.2228571 C8.1778562,12.4114295 7.9485728,12.5057143 7.6742857,12.5057143 C7.3999986,12.5057143 7.172858,12.4114295 6.9928571,12.2228571 C6.8128562,12.0342848 6.7228571,11.7942872 6.7228571,11.5028571 Z M7.0185714,10.0042857 C6.9757141,9.6957127 6.9864283,9.4128584 7.0507143,9.1557143 C7.1150003,8.8985701 7.2092851,8.6628582 7.3335714,8.4485714 C7.4578578,8.2342846 7.5992849,8.0350009 7.7578571,7.8507143 C7.9164294,7.6664277 8.0664279,7.4864295 8.2078571,7.3107143 C8.3492864,7.1349991 8.4671424,6.9614294 8.5614286,6.79 C8.6557148,6.6185706 8.7028571,6.4342867 8.7028571,6.2371429 C8.7028571,5.92856989 8.6107152,5.68000094 8.4264286,5.49142857 C8.2421419,5.3028562 7.9871445,5.20857143 7.6614286,5.20857143 C7.395713,5.20857143 7.1557154,5.26857083 6.9414286,5.38857143 C6.7271418,5.50857203 6.5257152,5.67142754 6.3371429,5.87714286 L5.51428571,5.11857143 C5.7885728,4.79285551 6.1142838,4.52500105 6.4914286,4.315 C6.8685733,4.10499895 7.2928548,4 7.7642857,4 C8.1071446,4 8.4242843,4.04499955 8.7157143,4.135 C9.0071443,4.22500045 9.2599989,4.3599991 9.4742857,4.54 C9.6885725,4.7200009 9.8535709,4.94285581 9.9692857,5.20857143 C10.0850006,5.47428704 10.1428571,5.78285539 10.1428571,6.1342857 C10.1428571,6.4085728 10.0935719,6.6549989 9.995,6.8735714 C9.8964281,7.092144 9.7742864,7.299999 9.6285714,7.4971429 C9.4828564,7.6942867 9.3264294,7.8828562 9.1592857,8.0628571 C8.992142,8.242858 8.8421435,8.4314276 8.7092857,8.6285714 C8.5764279,8.8257153 8.4692861,9.0357132 8.3878571,9.2585714 C8.3064282,9.4814297 8.282857,9.7299986 8.3171429,10.0042857 L7.0185714,10.0042857 Z" id="path-1"></path>
    </defs>
    <g id="Page-1" stroke="none" stroke-width="1" fill="none" fill-rule="evenodd">
        <g id="help-icon">
            <g id="Symbols">
                <g id="nav-/-navbar">
                    <g id="right-section">
                        <g id="icon-/-help">
                            <g id="icon" opacity="0.7" fill="#FFFFFF">
                                <path d="M8,16 C12.418278,16 16,12.418278 16,8 C16,3.581722 12.418278,0 8,0 C3.581722,0 0,3.581722 0,8 C0,12.418278 3.581722,16 8,16 Z M6.7228571,11.5028571 C6.7228571,11.2114271 6.8128562,10.9714295 6.9928571,10.7828571 C7.172858,10.5942848 7.3999986,10.5 7.6742857,10.5 C7.9485728,10.5 8.1778562,10.5942848 8.3621429,10.7828571 C8.5464295,10.9714295 8.6385714,11.2114271 8.6385714,11.5028571 C8.6385714,11.7942872 8.5464295,12.0342848 8.3621429,12.2228571 C8.1778562,12.4114295 7.9485728,12.5057143 7.6742857,12.5057143 C7.3999986,12.5057143 7.172858,12.4114295 6.9928571,12.2228571 C6.8128562,12.0342848 6.7228571,11.7942872 6.7228571,11.5028571 Z M7.0185714,10.0042857 C6.9757141,9.6957127 6.9864283,9.4128584 7.0507143,9.1557143 C7.1150003,8.8985701 7.2092851,8.6628582 7.3335714,8.4485714 C7.4578578,8.2342846 7.5992849,8.0350009 7.7578571,7.8507143 C7.9164294,7.6664277 8.0664279,7.4864295 8.2078571,7.3107143 C8.3492864,7.1349991 8.4671424,6.9614294 8.5614286,6.79 C8.6557148,6.6185706 8.7028571,6.4342867 8.7028571,6.2371429 C8.7028571,5.92856989 8.6107152,5.68000094 8.4264286,5.49142857 C8.2421419,5.3028562 7.9871445,5.20857143 7.6614286,5.20857143 C7.395713,5.20857143 7.1557154,5.26857083 6.9414286,5.38857143 C6.7271418,5.50857203 6.5257152,5.67142754 6.3371429,5.87714286 L5.51428571,5.11857143 C5.7885728,4.79285551 6.1142838,4.52500105 6.4914286,4.315 C6.8685733,4.10499895 7.2928548,4 7.7642857,4 C8.1071446,4 8.4242843,4.04499955 8.7157143,4.135 C9.0071443,4.22500045 9.2599989,4.3599991 9.4742857,4.54 C9.6885725,4.7200009 9.8535709,4.94285581 9.9692857,5.20857143 C10.0850006,5.47428704 10.1428571,5.78285539 10.1428571,6.1342857 C10.1428571,6.4085728 10.0935719,6.6549989 9.995,6.8735714 C9.8964281,7.092144 9.7742864,7.299999 9.6285714,7.4971429 C9.4828564,7.6942867 9.3264294,7.8828562 9.1592857,8.0628571 C8.992142,8.242858 8.8421435,8.4314276 8.7092857,8.6285714 C8.5764279,8.8257153 8.4692861,9.0357132 8.3878571,9.2585714 C8.3064282,9.4814297 8.282857,9.7299986 8.3171429,10.0042857 L7.0185714,10.0042857 Z" id="path-3"></path>
                            </g>
                            <g id="color-/-primary-/-gray-dark-Clipped">
                                <mask id="mask-2" fill="white">
                                    <use xlink:href="#path-1"></use>
                                </mask>
                                <g id="path-3"></g>
                                <g id="color-/-primary-/-gray-dark" mask="url(#mask-2)">
                                    <g transform="translate(-41.000000, -40.000000)" id="Rectangle">
                                        <g>
                                            <rect id="Rectangle-path" fill="#FFFFFF" x="0" y="0" width="100" height="100"></rect>
                                        </g>
                                    </g>
                                </g>
                            </g>
                        </g>
                    </g>
                </g>
            </g>
        </g>
    </g>
</svg>