<?xml version="1.0" encoding="UTF-8"?>
<svg width="123px" height="24px" viewBox="0 0 123 24" version="1.1" xmlns="http://www.w3.org/2000/svg" xmlns:xlink="http://www.w3.org/1999/xlink">
    <!-- Generator: Sketch 41.2 (35397) - http://www.bohemiancoding.com/sketch -->
    <title>IG logo</title>
    <desc>Created with Sketch.</desc>
    <defs></defs>
    <g id="Symbols" stroke="none" stroke-width="1" fill="none" fill-rule="evenodd">
        <g id="nav-/-navbar" transform="translate(-15.000000, -11.000000)">
            <g id="IG-logo" transform="translate(15.000000, 11.000000)">
                <g id="Text" transform="translate(23.082168, 5.142857)" fill="#FFFFFF">
                    <rect id="path-1" x="0.610016372" y="0.972219563" width="2.70023772" height="11.8548943"></rect>
                    <path d="M4.72175723,6.96998352 C4.72175723,5.89706775 4.68642488,4.98239258 4.6510926,4.22618089 L6.91012377,4.22618089 L7.03356319,5.3871319 L7.08656164,5.3871319 C7.45710363,4.84175905 8.21607726,4.0327262 9.69846863,4.0327262 C10.8103181,4.0327262 11.6927312,4.59570613 12.0632731,5.49255135 L12.0986054,5.49255135 C12.4161489,5.05282081 12.804357,4.70112551 13.2104548,4.45484967 C13.6869937,4.17335974 14.2163074,4.0327262 14.851618,4.0327262 C16.5106708,4.0327262 17.7636259,5.19367721 17.7636259,7.76163215 L17.7636259,12.8271139 L15.1517189,12.8271139 L15.1517189,8.14854153 C15.1517189,6.89977815 14.7456211,6.17855768 13.8808741,6.17855768 C13.2634533,6.17855768 12.8220231,6.60068121 12.6455853,7.11083991 C12.5749206,7.3042946 12.539812,7.58578453 12.539812,7.79662337 L12.539812,12.8271139 L9.92790496,12.8271139 L9.92790496,8.007908 C9.92790496,6.91738522 9.53969687,6.17855768 8.6926161,6.17855768 C8.00408343,6.17855768 7.59843283,6.70610059 7.43943746,7.14583113 C7.35133032,7.35711576 7.33366415,7.60316875 7.33366415,7.81445331 L7.33366415,12.8271139 L4.72175723,12.8271139 L4.72175723,6.96998352 L4.72175723,6.96998352 L4.72175723,6.96998352 Z" id="path-2"></path>
                    <path d="M21.6989288,9.13342207 C21.6989288,9.34448377 21.716595,9.53793846 21.7519273,9.69640193 C21.9283652,10.4173995 22.5460096,10.9627723 23.3226494,10.9627723 C24.4872737,10.9627723 25.1755828,9.99527607 25.1755828,8.53545092 C25.1755828,7.16366107 24.5579383,6.12573652 23.3579818,6.12573652 C22.5990081,6.12573652 21.9283652,6.68871645 21.7519273,7.48014222 C21.716595,7.62077576 21.6989288,7.79662337 21.6989288,7.95508684 L21.6989288,9.13342207 L21.6989288,9.13342207 L21.6989288,9.13342207 Z M19.0165809,7.11083991 C19.0165809,5.98510299 18.9812486,5.01760673 18.9459163,4.22618089 L21.2753885,4.22618089 L21.3988279,5.42234598 L21.4343838,5.42234598 C22.0694708,4.50767082 23.0578808,4.0327262 24.3108358,4.0327262 C26.1991014,4.0327262 27.893263,5.66862183 27.893263,8.41242446 C27.893263,11.5431364 25.8992241,13.0205686 23.9756262,13.0205686 C22.9344413,13.0205686 22.1224692,12.5984451 21.7342611,12.0356881 L21.6989288,12.0356881 L21.6989288,16.309744 L19.0165809,16.309744 L19.0165809,7.11083991 L19.0165809,7.11083991 L19.0165809,7.11083991 Z" id="path-3"></path>
                    <path d="M31.0170411,8.51784384 C31.0170411,9.99527607 31.6346855,11.1034059 32.7818673,11.1034059 C33.8230521,11.1034059 34.493695,10.0657042 34.493695,8.51784384 C34.493695,7.23386637 33.99949,5.93228189 32.7818673,5.93228189 C31.4935799,5.93228189 31.0170411,7.25147345 31.0170411,8.51784384 L31.0170411,8.51784384 L31.0170411,8.51784384 Z M37.2643734,8.43003147 C37.2643734,11.5783505 35.023232,13.0205686 32.7112027,13.0205686 C30.1876265,13.0205686 28.2463624,11.3672888 28.2463624,8.58827207 C28.2463624,5.80925537 30.0818532,4.0327262 32.8525319,4.0327262 C35.4995473,4.0327262 37.2643734,5.84446945 37.2643734,8.43003147 L37.2643734,8.43003147 L37.2643734,8.43003147 Z" id="path-4"></path>
                    <path d="M38.0410133,7.05801876 C38.0410133,5.79164836 38.0056813,4.96500844 37.9703487,4.22618089 L40.2823783,4.22618089 L40.3704855,5.80925537 L40.4411501,5.80925537 C40.8823571,4.56026912 41.9412079,4.0327262 42.7706224,4.0327262 C43.017725,4.0327262 43.1411641,4.0327262 43.3354922,4.06794035 L43.3354922,6.58307413 C43.1411641,6.54786005 42.9119515,6.51286883 42.6118506,6.51286883 C41.6234407,6.51286883 40.952798,7.04041168 40.7763599,7.8670516 C40.7410273,8.04289922 40.7233617,8.25418385 40.7233617,8.46502275 L40.7233617,12.8271139 L38.0410133,12.8271139 L38.0410133,7.05801876 L38.0410133,7.05801876 L38.0410133,7.05801876 Z" id="path-5"></path>
                    <path d="M47.2354625,1.76386826 L47.2354625,4.22618089 L49.1590604,4.22618089 L49.1590604,6.19616475 L47.2354625,6.19616475 L47.2354625,9.30949254 C47.2354625,10.3471942 47.4823415,10.8221388 48.2943139,10.8221388 C48.6295231,10.8221388 48.8942921,10.7869247 49.0886195,10.7517106 L49.1060621,12.7742927 C48.7531866,12.9151492 48.1178759,13.0029616 47.3589023,13.0029616 C46.4941552,13.0029616 45.7707373,12.7040874 45.3469736,12.2643569 C44.852992,11.7541982 44.6058893,10.9275582 44.6058893,9.71378608 L44.6058893,6.19616475 L43.4587077,6.19616475 L43.4587077,4.22618089 L44.6058893,4.22618089 L44.6058893,2.36183935 L47.2354625,1.76386826 L47.2354625,1.76386826 L47.2354625,1.76386826 Z" id="path-6"></path>
                    <path d="M60.5492557,12.4653893 C59.7198412,12.7468793 58.1491189,13.1337886 56.5783971,13.1337886 C54.4076966,13.1337886 52.8369743,12.5884158 51.7430145,11.53333 C50.6486081,10.5130125 50.048853,8.96515209 50.0662956,7.22383707 C50.0839619,3.28386936 52.9606377,1.03261843 56.8606081,1.03261843 C58.3962215,1.03261843 59.5785121,1.33171543 60.1608239,1.6129825 L59.5961784,3.75881398 C58.9432014,3.47754691 58.1314532,3.24887813 56.8254998,3.24887813 C54.5841347,3.24887813 52.8899732,4.51524859 52.8899732,7.08320354 C52.8899732,9.52790916 54.4253629,10.9703501 56.6313954,10.9703501 C57.2490398,10.9703501 57.7432451,10.8999219 57.9550151,10.7945024 L57.9550151,8.31435985 L56.1195245,8.31435985 L56.1195245,6.22134953 L60.5492557,6.22134953 L60.5492557,12.4653893 L60.5492557,12.4653893 L60.5492557,12.4653893 Z" id="Shape"></path>
                    <path d="M67.0081352,7.73399578 C67.0081352,7.08320354 66.7259237,5.99268076 65.4904111,5.99268076 C64.3611194,5.99268076 63.9022468,7.01277531 63.8315822,7.73399578 L67.0081352,7.73399578 L67.0081352,7.73399578 L67.0081352,7.73399578 Z M63.8492485,9.5633461 C63.9375794,10.6712531 65.0317621,11.1990189 66.2847173,11.1990189 C67.2024626,11.1990189 67.9435469,11.0757695 68.6669641,10.8471007 L69.020064,12.658844 C68.1376506,13.0105393 67.0613572,13.1866097 65.8965092,13.1866097 C62.9668351,13.1866097 61.2903399,11.4978929 61.2903399,8.80691155 C61.2903399,6.62586592 62.6490679,4.21615159 65.6491829,4.21615159 C68.4377515,4.21615159 69.4966029,6.37959008 69.4966029,8.50781454 C69.4966029,8.96515209 69.443604,9.36989141 69.4084957,9.5633461 L63.8492485,9.5633461 L63.8492485,9.5633461 L63.8492485,9.5633461 Z" id="Shape"></path>
                    <path d="M70.2206912,7.1536317 C70.2206912,6.080716 70.1851356,5.16604083 70.149803,4.40960628 L72.4794989,4.40960628 L72.6029381,5.5881643 L72.6559364,5.5881643 C73.0088125,5.04279145 73.8914489,4.21615159 75.3206184,4.21615159 C77.0856682,4.21615159 78.4092879,5.3771026 78.4092879,7.90984346 L78.4092879,13.0105393 L75.7267165,13.0105393 L75.7267165,8.24415455 C75.7267165,7.13602469 75.3382847,6.37959008 74.3679879,6.37959008 C73.6264569,6.37959008 73.1852506,6.88974884 73.0088125,7.38230054 C72.9383716,7.54054108 72.903039,7.80442401 72.903039,8.05069985 L72.903039,13.0105393 L70.2206912,13.0105393 L70.2206912,7.1536317 L70.2206912,7.1536317 L70.2206912,7.1536317 Z" id="Shape"></path>
                    <path d="M79.6799088,13.0105393 L79.6799088,4.40960628 L82.3624808,4.40960628 L82.3624808,13.0105393 L79.6799088,13.0105393 L79.6799088,13.0105393 L79.6799088,13.0105393 Z M82.450588,2.01749896 C82.450588,2.75632644 81.8859419,3.35429759 81.0035285,3.35429759 C80.1562241,3.35429759 79.5915785,2.75632644 79.6092442,2.01749896 C79.5915785,1.24368019 80.1562241,0.663316118 81.0209711,0.663316118 C81.8859419,0.663316118 82.4329217,1.24368019 82.450588,2.01749896 L82.450588,2.01749896 L82.450588,2.01749896 Z" id="Shape"></path>
                    <path d="M91.7684764,10.2491296 C91.7684764,11.3748665 91.8038084,12.2895416 91.8389173,13.0105393 L89.5094451,13.0105393 L89.3860059,11.79699 L89.3330076,11.79699 C88.9977978,12.3247557 88.186049,13.2042168 86.6329929,13.2042168 C84.8858332,13.2042168 83.597546,12.113694 83.597546,9.45770379 L83.597546,4.40960628 L86.2975601,4.40960628 L86.2975601,9.03558032 C86.2975601,10.2843437 86.7036582,11.0407783 87.6388455,11.0407783 C88.3801534,11.0407783 88.8036934,10.5306196 88.9801315,10.1084961 C89.0507961,9.95025548 89.0684624,9.73919372 89.0684624,9.52790916 L89.0684624,4.40960628 L91.7684764,4.40960628 L91.7684764,10.2491296 L91.7684764,10.2491296 L91.7684764,10.2491296 Z" id="Shape"></path>
                    <path d="M93.0218789,10.6712531 C93.5158599,10.9703501 94.5396024,11.3220453 95.3334612,11.3220453 C96.1454331,11.3220453 96.4806429,11.0407783 96.4806429,10.6008249 C96.4806429,10.1613172 96.2160976,9.95025548 95.2102451,9.6159444 C93.427529,9.01797325 92.7394437,8.05069985 92.75711,7.03038238 C92.75711,5.42992369 94.1335043,4.21615159 96.2688729,4.21615159 C97.2749491,4.21615159 98.1748044,4.44482036 98.7043417,4.70870322 L98.2278027,6.55566062 C97.8395946,6.34437599 97.0982873,6.06310892 96.3572031,6.06310892 C95.7042267,6.06310892 95.3334612,6.32676898 95.3334612,6.76649946 C95.3334612,7.17101591 95.6688941,7.38230054 96.7277455,7.75160285 C98.3691318,8.31435985 99.0574408,9.14099977 99.0748834,10.407593 C99.0748834,12.0080517 97.8042626,13.1866097 95.3334612,13.1866097 C94.2041689,13.1866097 93.1983164,12.9403339 92.54534,12.5884158 L93.0218789,10.6712531 L93.0218789,10.6712531 L93.0218789,10.6712531 Z" id="Shape"></path>
                </g>
                <g id="Bulb">
                    <path d="M11.9361473,17.6905122 L5.7102013,17.6905122 C5.1600874,17.6905122 4.71233406,17.0703946 4.68378553,16.2904484 C1.92877854,14.8370114 0.0549300318,11.9790023 0.0549300318,8.68993584 C0.0549300318,3.92896267 3.98072254,0.0690797034 8.82317426,0.0690797034 C13.6657739,0.0690797034 17.5917143,3.92896267 17.5917143,8.68993584 C17.5917143,11.9791477 15.7177179,14.8370114 12.962563,16.2904484 C12.9340145,17.0703946 12.4861132,17.6905122 11.9361473,17.6905122 L11.9361473,17.6905122 Z" id="path-8" fill="#104598"></path>
                    <path d="M5.57455886,22.0077755 L5.1871568,21.5883526 L5.17561906,19.6067104 L12.4670317,20.7880461 L12.4710255,21.473753 L12.0698669,21.9178992 L5.57455886,22.0077755 Z M12.4708776,20.1519311 L12.4593398,18.2549297 C12.4593398,18.2549297 12.4578606,17.9544694 12.1836172,17.9557783 C11.9096697,17.957378 5.48181312,17.9938812 5.48181312,17.9938812 C5.48181312,17.9938812 5.17325234,17.9585414 5.17561906,18.3379708 L5.17946497,19.012625 L12.4708776,20.1519311 Z M6.31637685,22.4714094 L7.42045052,23.6668518 L10.2883203,23.6505636 L11.3302677,22.4961327 L6.31637685,22.4714094 Z" id="Combined-Shape" fill="#464747"></path>
                </g>
                <path d="M14.9134778,7.97310668 L11.3625141,7.97310668 L11.3625141,9.62825635 L12.8338728,9.62825635 L12.8338728,11.5893928 C12.6640608,11.6727247 12.2679315,11.7284248 11.7728438,11.7284248 C10.0044621,11.7284248 8.77376906,10.5879552 8.77376906,8.65459611 C8.77376906,6.6239437 10.1318211,5.62250614 11.9284554,5.62250614 C12.9752842,5.62250614 13.6261314,5.80327679 14.1494718,6.02578616 L14.6022545,4.3288978 C14.1354194,4.10638843 13.1875491,3.8699177 11.9567081,3.8699177 C8.83027442,3.8699177 6.52435206,5.65028347 6.51015179,8.76585077 C6.4960994,10.1427911 6.97698677,11.366738 7.85415143,12.1734435 C8.73131608,13.0080717 9.9902618,13.4392745 11.7303908,13.4392745 C12.9894844,13.4392745 14.2485781,13.1332878 14.9134778,12.910633 L14.9134778,7.97310668 L14.9134778,7.97310668 Z" id="path-8-path" fill="#FFFFFF"></path>
                <polygon id="path-8-path" fill="#FFFFFF" points="2.91703098 3.96735644 5.08154196 3.96735644 5.08154196 13.3418358 2.91703098 13.3418358"></polygon>
            </g>
        </g>
    </g>
</svg>