<?xml version="1.0" encoding="UTF-8"?>
<svg width="109px" height="109px" viewBox="0 0 109 109" version="1.1" xmlns="http://www.w3.org/2000/svg" xmlns:xlink="http://www.w3.org/1999/xlink">
    <!-- Generator: Sketch 41.2 (35397) - http://www.bohemiancoding.com/sketch -->
    <title>magnifying-glass</title>
    <desc>Created with Sketch.</desc>
    <defs></defs>
    <g id="Page-1" stroke="none" stroke-width="1" fill="none" fill-rule="evenodd">
        <path d="M106.047,94.793 L83.691,72.438 C89.078,64.656 91.773,55.988 91.773,46.43 C91.773,40.215 90.566,34.273 88.156,28.602 C85.742,22.934 82.484,18.043 78.379,13.938 C74.273,9.832 69.387,6.57 63.715,4.16 C58.043,1.75 52.102,0.543 45.887,0.543 C39.672,0.543 33.73,1.75 28.059,4.16 C22.391,6.57 17.5,9.832 13.395,13.938 C9.289,18.043 6.027,22.934 3.617,28.602 C1.207,34.273 0,40.215 0,46.43 C0,52.645 1.207,58.582 3.617,64.254 C6.027,69.926 9.289,74.813 13.395,78.918 C17.5,83.027 22.391,86.285 28.059,88.699 C33.73,91.109 39.672,92.316 45.887,92.316 C55.445,92.316 64.117,89.621 71.895,84.23 L94.25,106.523 C95.812,108.172 97.766,109 100.113,109 C102.375,109 104.332,108.172 105.98,106.523 C107.633,104.871 108.457,102.914 108.457,100.656 C108.457,98.355 107.656,96.398 106.047,94.793 Z M66.516,67.059 C60.801,72.773 53.926,75.629 45.887,75.629 C37.848,75.629 30.973,72.77 25.258,67.059 C19.543,61.344 16.688,54.469 16.688,46.43 C16.688,38.391 19.543,31.512 25.258,25.801 C30.973,20.086 37.848,17.23 45.887,17.23 C53.926,17.23 60.801,20.086 66.516,25.801 C72.23,31.512 75.09,38.391 75.09,46.43 C75.09,54.469 72.23,61.344 66.516,67.059 Z" id="magnifying-glass" fill="#FFFFFF"></path>
    </g>
</svg>