<?xml version="1.0" encoding="UTF-8"?>
<svg width="16px" height="16px" viewBox="0 0 16 16" version="1.1" xmlns="http://www.w3.org/2000/svg" xmlns:xlink="http://www.w3.org/1999/xlink">
    <!-- Generator: Sketch 41.2 (35397) - http://www.bohemiancoding.com/sketch -->
    <title>notification-icon</title>
    <desc>Created with Sketch.</desc>
    <defs>
        <path d="M9.0041667,0.9875 C9.0041667,0.96666667 9.0083333,0.94583333 9.0083333,0.92083333 C9.0083333,0.40833333 8.5541667,0 8,0 C7.4458333,0 7.0083333,0.40833333 7.0083333,0.92083333 C7.0083333,0.94583333 7.0083333,0.96666667 7.0125,0.9875 C4.9625,1.3 2.7625,2.6875 2.7625,6.7541667 C2.7625,11.4958333 1.58333333,12.0041667 0,13.3375 L16,13.3375 C14.425,12 13.2375,11.4875 13.2375,6.7458333 C13.2375,2.67916667 11.05,1.29583333 9.0041667,0.9875 Z M10.1625,14.2083333 L5.85416667,14.2083333 C5.97083333,15.1708333 6.8916667,16 8.0083333,16 C9.125,16 10.0416667,15.1708333 10.1625,14.2083333 Z" id="path-1"></path>
    </defs>
    <g id="Page-1" stroke="none" stroke-width="1" fill="none" fill-rule="evenodd">
        <g id="notification-icon">
            <g id="Symbols">
                <g id="nav-/-navbar">
                    <g id="right-section">
                        <g id="icon-/-notification">
                            <g id="icon" opacity="0.7" fill="#FFFFFF">
                                <path d="M9.0041667,0.9875 C9.0041667,0.96666667 9.0083333,0.94583333 9.0083333,0.92083333 C9.0083333,0.40833333 8.5541667,0 8,0 C7.4458333,0 7.0083333,0.40833333 7.0083333,0.92083333 C7.0083333,0.94583333 7.0083333,0.96666667 7.0125,0.9875 C4.9625,1.3 2.7625,2.6875 2.7625,6.7541667 C2.7625,11.4958333 1.58333333,12.0041667 0,13.3375 L16,13.3375 C14.425,12 13.2375,11.4875 13.2375,6.7458333 C13.2375,2.67916667 11.05,1.29583333 9.0041667,0.9875 Z M10.1625,14.2083333 L5.85416667,14.2083333 C5.97083333,15.1708333 6.8916667,16 8.0083333,16 C9.125,16 10.0416667,15.1708333 10.1625,14.2083333 Z" id="path-3"></path>
                            </g>
                            <g id="color-/-primary-/-gray-dark-Clipped">
                                <mask id="mask-2" fill="white">
                                    <use xlink:href="#path-1"></use>
                                </mask>
                                <g id="path-3"></g>
                                <g id="color-/-primary-/-gray-dark" mask="url(#mask-2)">
                                    <g transform="translate(-41.000000, -40.000000)" id="Rectangle">
                                        <g>
                                            <rect id="Rectangle-path" fill="#FFFFFF" x="0" y="0" width="100" height="100"></rect>
                                        </g>
                                    </g>
                                </g>
                            </g>
                        </g>
                    </g>
                </g>
            </g>
        </g>
    </g>
</svg>