<?xml version="1.0" encoding="UTF-8"?>
<svg width="117px" height="105px" viewBox="0 0 117 105" version="1.1" xmlns="http://www.w3.org/2000/svg" xmlns:xlink="http://www.w3.org/1999/xlink">
    <!-- Generator: Sketch 41.2 (35397) - http://www.bohemiancoding.com/sketch -->
    <title>share-option-icon</title>
    <desc>Created with Sketch.</desc>
    <defs>
        <polygon id="path-1" points="58.4305 0.714 0.06 0.714 0.06 105 116.801 105 116.801 0.714"></polygon>
    </defs>
    <g id="Page-1" stroke="none" stroke-width="1" fill="none" fill-rule="evenodd">
        <g id="share-option-icon">
            <g id="Page-1">
                <g id="share-option">
                    <g id="Fill-1-Clipped">
                        <mask id="mask-2" fill="white">
                            <use xlink:href="#path-1"></use>
                        </mask>
                        <g id="path-1"></g>
                        <path d="M115.562,35.324 L82.191,1.953 C81.363,1.128 80.387,0.714 79.258,0.714 C78.129,0.714 77.148,1.128 76.324,1.953 C75.5,2.781 75.086,3.757 75.086,4.886 L75.086,21.574 L60.484,21.574 C29.504,21.574 10.492,30.328 3.453,47.839 C1.152,53.66 0,60.898 0,69.543 C0,76.757 2.758,86.554 8.277,98.941 C8.406,99.246 8.637,99.765 8.961,100.503 C9.289,101.242 9.582,101.894 9.84,102.457 C10.102,103.023 10.387,103.5 10.691,103.89 C11.211,104.628 11.82,105 12.516,105 C13.168,105 13.676,104.785 14.047,104.347 C14.414,103.914 14.602,103.371 14.602,102.718 C14.602,102.328 14.547,101.753 14.438,100.992 C14.328,100.234 14.273,99.722 14.273,99.46 C14.055,96.507 13.945,93.835 13.945,91.445 C13.945,87.058 14.328,83.125 15.09,79.648 C15.848,76.171 16.902,73.164 18.25,70.621 C19.598,68.078 21.336,65.882 23.465,64.039 C25.594,62.191 27.887,60.683 30.34,59.507 C32.797,58.335 35.684,57.41 39.008,56.738 C42.332,56.062 45.68,55.597 49.047,55.335 C52.414,55.074 56.227,54.945 60.484,54.945 L75.086,54.945 L75.086,71.632 C75.086,72.761 75.5,73.738 76.324,74.562 C77.148,75.39 78.129,75.804 79.258,75.804 C80.387,75.804 81.363,75.39 82.191,74.562 L115.562,41.191 C116.387,40.367 116.801,39.39 116.801,38.257 C116.801,37.128 116.387,36.152 115.562,35.324 Z" id="Fill-1" fill="#344050" mask="url(#mask-2)"></path>
                    </g>
                </g>
            </g>
        </g>
    </g>
</svg>