<?xml version="1.0" encoding="UTF-8"?>
<svg width="48px" height="48px" viewBox="0 0 48 48" version="1.1" xmlns="http://www.w3.org/2000/svg" xmlns:xlink="http://www.w3.org/1999/xlink">
    <!-- Generator: Sketch 41.2 (35397) - http://www.bohemiancoding.com/sketch -->
    <title>file (1)</title>
    <desc>Created with Sketch.</desc>
    <defs>
        <polygon id="path-1" points="47.2135599 47.94 0 47.94 0 23.97 0 0 47.2135599 0"></polygon>
    </defs>
    <g id="Page-1" stroke="none" stroke-width="1" fill="none" fill-rule="evenodd">
        <g id="file-(1)">
            <path d="M28.801,17.602 L8.801,17.602 C8.359,17.602 8,17.957 8,18.398 C8,18.84 8.359,19.199 8.801,19.199 L28.801,19.199 C29.242,19.199 29.602,18.84 29.602,18.398 C29.602,17.957 29.242,17.602 28.801,17.602 Z" id="Fill-1" fill="#15A2ED"></path>
            <path d="M8.801,12.801 L16.801,12.801 C17.242,12.801 17.602,12.441 17.602,12 C17.602,11.559 17.242,11.199 16.801,11.199 L8.801,11.199 C8.359,11.199 8,11.559 8,12 C8,12.441 8.359,12.801 8.801,12.801 Z" id="Fill-2" fill="#15A2ED"></path>
            <path d="M29.602,24.801 C29.602,24.359 29.242,24 28.801,24 L8.801,24 C8.359,24 8,24.359 8,24.801 C8,25.242 8.359,25.602 8.801,25.602 L28.801,25.602 C29.242,25.602 29.602,25.242 29.602,24.801 Z" id="Fill-3" fill="#15A2ED"></path>
            <path d="M23.199,31.199 C23.199,30.758 22.844,30.398 22.398,30.398 L8.801,30.398 C8.359,30.398 8,30.758 8,31.199 C8,31.641 8.359,32 8.801,32 L22.398,32 C22.844,32 23.199,31.641 23.199,31.199 Z" id="Fill-4" fill="#15A2ED"></path>
            <g id="Group-9">
                <mask id="mask-2" fill="white">
                    <use xlink:href="#path-1"></use>
                </mask>
                <g id="Clip-6"></g>
                <path d="M8.801,36.801 C8.359,36.801 8,37.16 8,37.602 C8,38.043 8.359,38.398 8.801,38.398 L20,38.398 C20.441,38.398 20.801,38.043 20.801,37.602 C20.801,37.16 20.441,36.801 20,36.801 L8.801,36.801 Z" id="Fill-5" fill="#15A2ED" mask="url(#mask-2)"></path>
                <path d="M1.602,1.602 L24.801,1.602 L24.801,12.801 L36,12.801 L36,24.801 L37.602,24.801 L37.602,11.668 L25.93,0 L0,0 L0,48 L29.602,48 L29.602,46.398 L1.602,46.398 L1.602,1.602 Z M26.398,2.73 L34.867,11.199 L26.398,11.199 L26.398,2.73 Z" id="Fill-7" fill="#15A2ED" mask="url(#mask-2)"></path>
                <path d="M46.992,46.633 L42.219,41.637 C43.613,40.102 44.473,38.07 44.473,35.836 C44.473,31.074 40.598,27.199 35.836,27.199 C31.074,27.199 27.199,31.074 27.199,35.836 C27.199,40.598 31.074,44.473 35.836,44.473 C37.789,44.473 39.59,43.812 41.035,42.719 L45.836,47.738 C45.992,47.902 46.203,47.984 46.414,47.984 C46.613,47.984 46.812,47.91 46.969,47.762 C47.285,47.457 47.297,46.953 46.992,46.633 Z M28.801,35.836 C28.801,31.957 31.957,28.801 35.836,28.801 C39.719,28.801 42.875,31.957 42.875,35.836 C42.875,39.719 39.719,42.875 35.836,42.875 C31.957,42.875 28.801,39.719 28.801,35.836 Z" id="Fill-8" fill="#15A2ED" mask="url(#mask-2)"></path>
            </g>
        </g>
    </g>
</svg>