<?xml version="1.0" encoding="UTF-8"?>
<svg width="14px" height="13px" viewBox="0 0 14 13" version="1.1" xmlns="http://www.w3.org/2000/svg" xmlns:xlink="http://www.w3.org/1999/xlink">
    <!-- Generator: Sketch 41.2 (35397) - http://www.bohemiancoding.com/sketch -->
    <title>path-3</title>
    <desc>Created with Sketch.</desc>
    <defs></defs>
    <g id="Page-1" stroke="none" stroke-width="1" fill="none" fill-rule="evenodd">
        <g id="visual-map" transform="translate(-1.000000, -1.000000)" fill="#15A2ED">
            <g id="Symbols">
                <g id="icon-/-visual-map">
                    <g id="Mask" transform="translate(8.000000, 7.500000) rotate(270.000000) translate(-8.000000, -7.500000) translate(1.000000, 0.000000)">
                        <path d="M11.7274892,9.9601111 L11.7282832,6.9281778 L7.5808335,6.9281778 L7.5808335,5.0398889 C8.5995945,4.78664444 9.3531854,3.88224444 9.3531854,2.80533333 C9.3531854,1.53211111 8.2998094,0.5 7.0001588,0.5 C5.7005081,0.5 4.64681453,1.53211111 4.64681453,2.80533333 C4.64681453,3.88224444 5.4005643,4.78648889 6.4194841,5.0398889 L6.4194841,6.9280222 L2.27266953,6.9280222 L2.27266953,9.9599556 C1.25374975,10.2133556 0.5,11.1174444 0.5,12.1945111 C0.5,13.4677333 1.55353478,14.4998444 2.85318546,14.4998444 C4.15283613,14.4998444 5.2063709,13.4675778 5.2063709,12.1945111 C5.2063709,11.1174444 4.45262116,10.2133556 3.43386017,9.9599556 L3.43386017,8.1048 L10.565981,8.1048 L10.565981,9.9601111 C9.5473788,10.2135111 8.7936291,11.1176 8.7936291,12.1946667 C8.7936291,13.4678889 9.8471638,14.5 11.1466557,14.5 C12.4464652,14.5 13.5,13.4677333 13.5,12.1946667 C13.5001588,11.1176 12.746409,10.2135111 11.7274892,9.9601111 Z" id="path-3"></path>
                    </g>
                </g>
            </g>
        </g>
    </g>
</svg>