<?xml version="1.0" encoding="UTF-8"?>
<svg width="371px" height="371px" viewBox="0 0 371 371" version="1.1" xmlns="http://www.w3.org/2000/svg" xmlns:xlink="http://www.w3.org/1999/xlink">
    <!-- Generator: Sketch 41.2 (35397) - http://www.bohemiancoding.com/sketch -->
    <title>weighing-scale</title>
    <desc>Created with Sketch.</desc>
    <defs></defs>
    <g id="Page-1" stroke="none" stroke-width="1" fill="none" fill-rule="evenodd">
        <g id="weighing-scale" fill="#344050">
            <path d="M277.199,338.2 C277.199,341.512 274.516,344.2 271.199,344.2 C267.887,344.2 265.199,341.512 265.199,338.2 C265.199,334.883 267.887,332.2 271.199,332.2 C274.516,332.2 277.199,334.883 277.199,338.2 Z" id="Fill-1"></path>
            <path d="M272.32,42.68 C270,42.039 214.48,26.52 185.121,26.52 C154.801,26.52 99.199,42.039 96.879,42.68 C93.762,43.559 91.922,46.758 92.719,49.879 L108.641,113.559 C109.281,116.282 111.762,118.121 114.48,118.121 C114.801,118.121 115.121,118.121 115.52,118.039 C116,117.961 162.078,110.2 185.199,110.2 C207.359,110.2 254.398,118.039 254.879,118.121 C258,118.68 260.961,116.68 261.68,113.559 L276.641,49.879 C277.281,46.758 275.441,43.559 272.32,42.68 Z M251.199,105.399 C239.121,103.481 210.32,99.239 191.121,98.36 L191.121,66.36 L179.121,66.36 L179.121,98.36 C159.359,99.16 130.801,103.481 118.879,105.399 L105.68,52.758 C120.641,48.84 161.762,38.602 185.039,38.602 C207.602,38.602 248.641,48.918 263.52,52.84 L251.199,105.399 Z" id="Fill-2"></path>
            <path d="M301.602,0.68 L67.68,0.68 C49.199,0.68 32.078,7.641 19.52,20.2 C6.879,32.84 0,49.879 0,68.36 L0,302.282 C0,340.84 29.762,371 67.762,371 L301.68,371 C320.16,371 337.441,363.879 350.32,350.918 C363.281,337.961 370.398,320.68 370.398,302.282 L370.398,68.36 C370.32,30.442 340.16,0.68 301.602,0.68 Z M358.32,302.36 C358.32,333.641 332.879,359.078 301.602,359.078 L67.68,359.078 C36.398,359.078 11.922,334.2 11.922,302.36 L11.922,145.078 L358.32,145.078 L358.32,302.36 Z M358.32,133.16 L11.922,133.16 L11.922,68.442 C11.922,36.602 35.84,12.68 67.68,12.68 L301.602,12.68 C333.441,12.68 358.32,37.16 358.32,68.442 L358.32,133.16 Z" id="Fill-3"></path>
            <path d="M297.602,344.2 C322.879,344.2 343.441,323.641 343.441,298.36 C343.441,295.078 340.719,292.36 337.441,292.36 C334.16,292.36 331.441,295.078 331.441,298.36 C331.441,317 316.238,332.2 297.602,332.2 C294.32,332.2 291.602,334.918 291.602,338.2 C291.602,341.481 294.32,344.2 297.602,344.2 Z" id="Fill-4"></path>
            <path d="M58.719,26.602 C40.559,26.602 25.84,41.321 25.84,59.481 C25.84,62.758 28.559,65.481 31.84,65.481 C35.121,65.481 37.84,62.758 37.84,59.481 C37.84,47.801 47.039,38.602 58.719,38.602 C62,38.602 64.719,35.879 64.719,32.602 C64.719,29.321 62,26.602 58.719,26.602 Z" id="Fill-5"></path>
        </g>
    </g>
</svg>